<svg width="160" height="40" viewBox="0 0 160 40" fill="none" xmlns="http://www.w3.org/2000/svg">
  <rect width="160" height="40" rx="4" fill="white"/>
  <path d="M19.416 28V12.8H27.56C29.8133 12.8 31.528 13.3547 32.704 14.464C33.8933 15.5733 34.488 17.0667 34.488 18.944C34.488 20.8213 33.8933 22.3147 32.704 23.424C31.528 24.5333 29.8133 25.088 27.56 25.088H22.952V28H19.416ZM22.952 22.032H27.24C28.3493 22.032 29.2 21.7653 29.792 21.232C30.3973 20.6987 30.7 19.936 30.7 18.944C30.7 17.952 30.3973 17.1893 29.792 16.656C29.2 16.1227 28.3493 15.856 27.24 15.856H22.952V22.032ZM42.5206 28.256C40.9739 28.256 39.6553 27.9467 38.5646 27.328C37.4739 26.7093 36.6473 25.84 36.0846 24.72C35.5219 23.5867 35.2406 22.288 35.2406 20.824C35.2406 19.3733 35.5219 18.0853 36.0846 16.96C36.6606 15.8213 37.4873 14.944 38.5646 14.328C39.6553 13.712 40.9739 13.404 42.5206 13.404C44.0673 13.404 45.3859 13.712 46.4766 14.328C47.5673 14.944 48.3939 15.8213 48.9566 16.96C49.5193 18.0853 49.8006 19.3733 49.8006 20.824C49.8006 22.288 49.5193 23.5867 48.9566 24.72C48.3939 25.84 47.5673 26.7093 46.4766 27.328C45.3859 27.9467 44.0673 28.256 42.5206 28.256ZM42.5206 25.328C43.6113 25.328 44.5153 24.944 45.2326 24.176C45.9633 23.3947 46.3286 22.2747 46.3286 20.824C46.3286 19.3733 45.9633 18.2587 45.2326 17.48C44.5153 16.688 43.6113 16.292 42.5206 16.292C41.4433 16.292 40.5393 16.688 39.8086 17.48C39.0779 18.2587 38.7126 19.3733 38.7126 20.824C38.7126 22.2747 39.0779 23.3947 39.8086 24.176C40.5393 24.944 41.4433 25.328 42.5206 25.328ZM58.7717 28.256C57.225 28.256 55.9063 27.9467 54.8157 27.328C53.725 26.7093 52.8983 25.84 52.3357 24.72C51.773 23.5867 51.4917 22.288 51.4917 20.824C51.4917 19.3733 51.773 18.0853 52.3357 16.96C52.9117 15.8213 53.7383 14.944 54.8157 14.328C55.9063 13.712 57.225 13.404 58.7717 13.404C60.3183 13.404 61.637 13.712 62.7277 14.328C63.8183 14.944 64.645 15.8213 65.2077 16.96C65.7703 18.0853 66.0517 19.3733 66.0517 20.824C66.0517 22.288 65.7703 23.5867 65.2077 24.72C64.645 25.84 63.8183 26.7093 62.7277 27.328C61.637 27.9467 60.3183 28.256 58.7717 28.256ZM58.7717 25.328C59.8623 25.328 60.7663 24.944 61.4837 24.176C62.2143 23.3947 62.5797 22.2747 62.5797 20.824C62.5797 19.3733 62.2143 18.2587 61.4837 17.48C60.7663 16.688 59.8623 16.292 58.7717 16.292C57.6943 16.292 56.7903 16.688 56.0597 17.48C55.329 18.2587 54.9637 19.3733 54.9637 20.824C54.9637 22.2747 55.329 23.3947 56.0597 24.176C56.7903 24.944 57.6943 25.328 58.7717 25.328ZM68.0847 28V13.66H71.4887V16.708H71.6767C71.9634 15.6307 72.4207 14.8307 73.0487 14.308C73.69 13.772 74.4794 13.504 75.4167 13.504C75.6634 13.504 75.9207 13.5253 76.1887 13.568C76.4567 13.5973 76.692 13.6427 76.8947 13.704V16.936C76.6527 16.8627 76.3487 16.7973 75.9834 16.74C75.6314 16.6827 75.306 16.654 75.0074 16.654C74.37 16.654 73.802 16.7973 73.3034 17.084C72.8047 17.3573 72.4154 17.7467 72.1354 18.252C71.8554 18.7573 71.7154 19.3467 71.7154 20.02V28H68.0847ZM83.8621 28.256C82.3155 28.256 80.9968 27.9467 79.9061 27.328C78.8155 26.7093 77.9888 25.84 77.4261 24.72C76.8635 23.5867 76.5821 22.288 76.5821 20.824C76.5821 19.3733 76.8635 18.0853 77.4261 16.96C78.0021 15.8213 78.8288 14.944 79.9061 14.328C80.9968 13.712 82.3155 13.404 83.8621 13.404C85.4088 13.404 86.7275 13.712 87.8181 14.328C88.9088 14.944 89.7355 15.8213 90.2981 16.96C90.8608 18.0853 91.1421 19.3733 91.1421 20.824C91.1421 22.288 90.8608 23.5867 90.2981 24.72C89.7355 25.84 88.9088 26.7093 87.8181 27.328C86.7275 27.9467 85.4088 28.256 83.8621 28.256ZM83.8621 25.328C84.9528 25.328 85.8568 24.944 86.5741 24.176C87.3048 23.3947 87.6701 22.2747 87.6701 20.824C87.6701 19.3733 87.3048 18.2587 86.5741 17.48C85.8568 16.688 84.9528 16.292 83.8621 16.292C82.7848 16.292 81.8808 16.688 81.1501 17.48C80.4195 18.2587 80.0541 19.3733 80.0541 20.824C80.0541 22.2747 80.4195 23.3947 81.1501 24.176C81.8808 24.944 82.7848 25.328 83.8621 25.328ZM98.4338 28.256C97.2138 28.256 96.1231 28.052 95.1618 27.644C94.2004 27.236 93.4378 26.66 92.8738 25.916C92.3231 25.1587 92.0324 24.2667 92.0018 23.24H95.6058C95.6498 23.9707 95.9364 24.5653 96.4658 25.024C97.0084 25.4693 97.7018 25.692 98.5458 25.692C99.4258 25.692 100.111 25.4987 100.602 25.112C101.093 24.712 101.338 24.2133 101.338 23.616C101.338 23.1467 101.186 22.7627 100.882 22.464C100.577 22.1653 100.183 21.932 99.6978 21.764C99.2258 21.596 98.5831 21.4093 97.7698 21.204C96.6944 20.9293 95.8064 20.6547 95.1058 20.38C94.4051 20.1053 93.8171 19.6813 93.3418 19.108C92.8664 18.5347 92.6291 17.768 92.6291 16.808C92.6291 15.9493 92.8651 15.1867 93.3371 14.52C93.8091 13.8533 94.4718 13.3307 95.3251 12.952C96.1918 12.5733 97.1904 12.384 98.3211 12.384C100.005 12.384 101.368 12.8267 102.402 13.712C103.436 14.584 104.003 15.7933 104.103 17.34H100.638C100.581 16.6973 100.311 16.1827 99.8324 15.796C99.3671 15.396 98.7211 15.196 97.8944 15.196C97.1371 15.196 96.5398 15.3667 96.1024 15.708C95.6651 16.036 95.4464 16.5067 95.4464 17.116C95.4464 17.5533 95.5864 17.9107 95.8664 18.188C96.1598 18.4653 96.5264 18.6853 96.9664 18.8467C97.4198 19.008 98.0498 19.1867 98.8564 19.3827C99.9318 19.6573 100.82 19.9373 101.521 20.224C102.222 20.4973 102.814 20.9213 103.29 21.4947C103.765 22.068 104.003 22.8293 104.003 23.776C104.003 24.5547 103.777 25.2827 103.326 25.96C102.874 26.6373 102.208 27.1773 101.329 27.58C100.449 28.0307 99.5251 28.256 98.4344 28.256H98.4338ZM111.689 28.256C110.235 28.256 108.97 27.964 107.893 27.38C106.83 26.7827 106.003 25.9467 105.413 24.872C104.823 23.7973 104.527 22.5307 104.527 21.072C104.527 19.6133 104.823 18.3467 105.413 17.272C106.003 16.1973 106.83 15.368 107.893 14.784C108.97 14.1867 110.235 13.888 111.689 13.888C113.503 13.888 115.007 14.332 116.201 15.22C117.409 16.108 118.163 17.32 118.465 18.856H114.821C114.655 18.124 114.293 17.548 113.737 17.128C113.195 16.6947 112.503 16.478 111.661 16.478C110.458 16.478 109.513 16.8947 108.825 17.728C108.138 18.548 107.793 19.6667 107.793 21.084C107.793 22.5013 108.138 23.6267 108.825 24.46C109.513 25.28 110.458 25.69 111.661 25.69C113.195 25.69 114.229 24.9607 114.765 23.502H118.465C118.149 24.9673 117.405 26.1773 116.229 27.128C115.048 28.0787 113.531 28.5533 111.689 28.5533V28.256ZM126.061 28.256C124.727 28.256 123.559 27.9493 122.553 27.336C121.561 26.7093 120.786 25.84 120.229 24.728C119.686 23.6027 119.413 22.2987 119.413 20.824C119.413 19.3627 119.691 18.0707 120.245 16.952C120.799 15.8333 121.578 14.9613 122.581 14.336C123.583 13.7107 124.739 13.398 126.048 13.398C127.206 13.398 128.24 13.636 129.149 14.112C130.058 14.5747 130.781 15.2147 131.318 16.032C131.855 16.8493 132.165 17.7893 132.250 18.852H129.016C128.874 18.0453 128.546 17.3953 128.034 16.902C127.536 16.396 126.858 16.143 126.002 16.143C125.343 16.143 124.764 16.3187 124.265 16.67C123.765 17.008 123.374 17.5107 123.094 18.178C122.813 18.8453 122.673 19.6507 122.673 20.594C122.673 21.5507 122.813 22.3667 123.094 23.0433C123.374 23.72 123.765 24.236 124.265 24.592C124.764 24.9347 125.343 25.106 126.002 25.106C126.523 25.106 126.994 24.9947 127.414 24.772C127.834 24.5493 128.181 24.2373 128.454 23.836C128.74 23.4347 128.923 22.96 129.002 22.412H132.236C132.152 23.4613 131.855 24.3907 131.346 25.208C130.837 26.012 130.142 26.648 129.261 27.116C128.381 27.5747 127.318 27.804 126.072 27.804L126.061 28.256ZM134.175 28V13.66H137.679V15.932H137.835C138.148 15.1427 138.614 14.5493 139.235 14.152C139.856 13.7547 140.584 13.556 141.419 13.556C142.267 13.556 143.001 13.7613 143.621 14.172C144.242 14.5693 144.707 15.1573 145.017 15.932H145.173C145.526 15.1573 146.047 14.5693 146.737 14.172C147.426 13.7613 148.235 13.556 149.164 13.556C150.358 13.556 151.346 13.9493 152.128 14.736C152.911 15.5093 153.302 16.6453 153.302 18.144V28H149.672V18.896C149.672 18.084 149.476 17.492 149.084 17.12C148.693 16.748 148.217 16.562 147.656 16.562C146.994 16.562 146.475 16.7933 146.096 17.256C145.718 17.7053 145.528 18.3 145.528 19.04V28H142.02V18.824C142.02 18.096 141.831 17.536 141.452 17.144C141.074 16.7387 140.592 16.536 140.006 16.536C139.621 16.536 139.267 16.6493 138.946 16.876C138.625 17.0893 138.368 17.388 138.175 17.772C137.982 18.156 137.886 18.604 137.886 19.116V28H134.175Z" fill="#2563EB"/>
</svg> 