<svg width="160" height="40" viewBox="0 0 160 40" fill="none" xmlns="http://www.w3.org/2000/svg">
  <rect width="160" height="40" rx="4" fill="white"/>
  <path d="M19.416 28V12.8H27.56C29.8133 12.8 31.528 13.3547 32.704 14.464C33.8933 15.5733 34.488 17.0667 34.488 18.944C34.488 20.8213 33.8933 22.3147 32.704 23.424C31.528 24.5333 29.8133 25.088 27.56 25.088H22.952V28H19.416ZM22.952 22.032H27.24C28.3493 22.032 29.2 21.7653 29.792 21.232C30.3973 20.6987 30.7 19.936 30.7 18.944C30.7 17.952 30.3973 17.1893 29.792 16.656C29.2 16.1227 28.3493 15.856 27.24 15.856H22.952V22.032ZM42.0206 28.256C40.4739 28.256 39.1553 27.9467 38.0646 27.328C36.9739 26.7093 36.1473 25.84 35.5846 24.72C35.0219 23.5867 34.7406 22.288 34.7406 20.824C34.7406 19.3733 35.0219 18.0853 35.5846 16.96C36.1606 15.8213 36.9873 14.944 38.0646 14.328C39.1553 13.712 40.4739 13.404 42.0206 13.404C43.5673 13.404 44.8859 13.712 45.9766 14.328C47.0673 14.944 47.8939 15.8213 48.4566 16.96C49.0193 18.0853 49.3006 19.3733 49.3006 20.824C49.3006 22.288 49.0193 23.5867 48.4566 24.72C47.8939 25.84 47.0673 26.7093 45.9766 27.328C44.8859 27.9467 43.5673 28.256 42.0206 28.256ZM42.0206 25.328C43.1113 25.328 44.0153 24.944 44.7326 24.176C45.4633 23.3947 45.8286 22.2747 45.8286 20.824C45.8286 19.3733 45.4633 18.2587 44.7326 17.48C44.0153 16.688 43.1113 16.292 42.0206 16.292C40.9433 16.292 40.0393 16.688 39.3086 17.48C38.5779 18.2587 38.2126 19.3733 38.2126 20.824C38.2126 22.2747 38.5779 23.3947 39.3086 24.176C40.0393 24.944 40.9433 25.328 42.0206 25.328ZM60.9717 27.328C59.881 27.9467 58.5624 28.256 57.0157 28.256C55.469 28.256 54.1504 27.9467 53.0597 27.328C51.969 26.7093 51.1424 25.84 50.5797 24.72C50.017 23.5867 49.7357 22.288 49.7357 20.824C49.7357 19.3733 50.017 18.0853 50.5797 16.96C51.1557 15.8213 51.9824 14.944 53.0597 14.328C54.1504 13.712 55.469 13.404 57.0157 13.404C58.5624 13.404 59.881 13.712 60.9717 14.328C62.0624 14.944 62.889 15.8213 63.4517 16.96C64.0144 18.0853 64.2957 19.3733 64.2957 20.824C64.2957 22.288 64.0144 23.5867 63.4517 24.72C62.889 25.84 61.9757 26.7093 60.9717 27.328ZM57.0157 25.328C58.1064 25.328 59.0104 24.944 59.7277 24.176C60.4584 23.3947 60.8237 22.2747 60.8237 20.824C60.8237 19.3733 60.4584 18.2587 59.7277 17.48C59.0104 16.688 58.1064 16.292 57.0157 16.292C55.9384 16.292 55.0344 16.688 54.3037 17.48C53.573 18.2587 53.2077 19.3733 53.2077 20.824C53.2077 22.2747 53.573 23.3947 54.3037 24.176C55.0344 24.944 55.9384 25.328 57.0157 25.328ZM74.9408 28V16.4H71.4164V13.66H82.1568V16.4H78.6324V28H74.9408ZM89.1821 28.256C87.6355 28.256 86.3168 27.9467 85.2261 27.328C84.1355 26.7093 83.3088 25.84 82.7461 24.72C82.1835 23.5867 81.9021 22.288 81.9021 20.824C81.9021 19.3733 82.1835 18.0853 82.7461 16.96C83.3221 15.8213 84.1488 14.944 85.2261 14.328C86.3168 13.712 87.6355 13.404 89.1821 13.404C90.7288 13.404 92.0475 13.712 93.1381 14.328C94.2288 14.944 95.0555 15.8213 95.6181 16.96C96.1808 18.0853 96.4621 19.3733 96.4621 20.824C96.4621 22.288 96.1808 23.5867 95.6181 24.72C95.0555 25.84 94.2288 26.7093 93.1381 27.328C92.0475 27.9467 90.7288 28.256 89.1821 28.256ZM89.1821 25.328C90.2728 25.328 91.1768 24.944 91.8941 24.176C92.6248 23.3947 92.9901 22.2747 92.9901 20.824C92.9901 19.3733 92.6248 18.2587 91.8941 17.48C91.1768 16.688 90.2728 16.292 89.1821 16.292C88.1048 16.292 87.2008 16.688 86.4701 17.48C85.7395 18.2587 85.3741 19.3733 85.3741 20.824C85.3741 22.2747 85.7395 23.3947 86.4701 24.176C87.2008 24.944 88.1048 25.328 89.1821 25.328ZM106.794 28.256C105.574 28.256 104.483 28.052 103.522 27.644C102.56 27.236 101.798 26.66 101.234 25.916C100.683 25.1587 100.392 24.2667 100.362 23.24H103.966C104.01 23.9707 104.296 24.5653 104.826 25.024C105.368 25.4693 106.062 25.692 106.906 25.692C107.786 25.692 108.471 25.4987 108.962 25.112C109.453 24.712 109.698 24.2133 109.698 23.616C109.698 23.1467 109.546 22.7627 109.242 22.464C108.937 22.1653 108.543 21.932 108.058 21.764C107.586 21.596 106.943 21.4093 106.13 21.204C105.054 20.9293 104.166 20.6547 103.466 20.38C102.765 20.1053 102.177 19.6813 101.702 19.108C101.226 18.5347 100.989 17.768 100.989 16.808C100.989 15.9493 101.225 15.1867 101.697 14.52C102.169 13.8533 102.832 13.3307 103.685 12.952C104.552 12.5733 105.55 12.384 106.681 12.384C108.365 12.384 109.728 12.8267 110.762 13.712C111.796 14.584 112.363 15.7933 112.463 17.34H108.998C108.941 16.6973 108.671 16.1827 108.192 15.796C107.727 15.396 107.081 15.196 106.254 15.196C105.497 15.196 104.9 15.3667 104.462 15.708C104.025 16.036 103.806 16.5067 103.806 17.116C103.806 17.5533 103.946 17.9107 104.226 18.188C104.52 18.4653 104.886 18.6853 105.326 18.8467C105.78 19.008 106.41 19.1867 107.216 19.3827C108.292 19.6573 109.18 19.9373 109.881 20.224C110.582 20.4973 111.174 20.9213 111.65 21.4947C112.125 22.068 112.363 22.8293 112.363 23.776C112.363 24.5547 112.137 25.2827 111.685 25.96C111.234 26.6373 110.568 27.1773 109.689 27.58C108.809 28.0307 107.885 28.256 106.794 28.256ZM119.912 28.256C118.459 28.256 117.193 27.964 116.116 27.38C115.053 26.7827 114.226 25.9467 113.636 24.872C113.046 23.7973 112.75 22.5307 112.75 21.072C112.75 19.6133 113.046 18.3467 113.636 17.272C114.226 16.1973 115.053 15.368 116.116 14.784C117.193 14.1867 118.459 13.888 119.912 13.888C121.726 13.888 123.23 14.332 124.424 15.22C125.632 16.108 126.386 17.32 126.688 18.856H123.044C122.878 18.124 122.516 17.548 121.96 17.128C121.418 16.6947 120.726 16.478 119.884 16.478C118.682 16.478 117.736 16.8947 117.048 17.728C116.362 18.548 116.016 19.6667 116.016 21.084C116.016 22.5013 116.362 23.6267 117.048 24.46C117.736 25.28 118.682 25.69 119.884 25.69C121.418 25.69 122.452 24.9607 122.988 23.502H126.688C126.372 24.9673 125.628 26.1773 124.452 27.128C123.272 28.0787 121.754 28.5533 119.912 28.5533V28.256Z" fill="#2563EB"/>
</svg> 