<?xml version="1.0" encoding="UTF-8"?>
<svg width="1200" height="630" viewBox="0 0 1200 630" fill="none" xmlns="http://www.w3.org/2000/svg">
  <defs>
    <linearGradient id="bg-foreman-software" x1="600" y1="0" x2="600" y2="630" gradientUnits="userSpaceOnUse">
      <stop stop-color="#102A43" />
      <stop offset="1" stop-color="#0B1F33" />
    </linearGradient>
    <radialGradient id="glow-foreman-software" cx="0" cy="0" r="1" gradientUnits="userSpaceOnUse" gradientTransform="translate(1015 102) rotate(123.5) scale(472 472)">
      <stop stop-color="#0EA5E9" stop-opacity="0.35" />
      <stop offset="1" stop-color="#0EA5E9" stop-opacity="0" />
    </radialGradient>
    <style>
      .brand { font: 600 18px 'Segoe UI', 'Arial', sans-serif; letter-spacing: 0.14em; }
      .brand-secondary { font: 500 14px 'Segoe UI', 'Arial', sans-serif; letter-spacing: 0.24em; fill: #CBD5E1; }
      .title { font: 700 40px 'Segoe UI', 'Arial', sans-serif; fill: #F8FAFC; }
      .subtitle { font: 500 18px 'Segoe UI', 'Arial', sans-serif; fill: #E5E7EB; }
      .meta { font: 500 16px 'Segoe UI', 'Arial', sans-serif; fill: #CBD5E1; letter-spacing: 0.02em; }
      .preview { font: 600 18px 'Segoe UI', 'Arial', sans-serif; fill: #E5E7EB; letter-spacing: 0.1em; }
      .preview-meta { font: 500 18px 'Segoe UI', 'Arial', sans-serif; fill: #CBD5E1; }
    </style>
  </defs>
  <rect width="1200" height="630" fill="url(#bg-foreman-software)" />
  <circle cx="1015" cy="102" r="236" fill="url(#glow-foreman-software)" />
  <circle cx="1030" cy="468" r="155" fill="#0EA5E9" fill-opacity="0.08" />
  <rect x="70" y="72" width="650" height="486" rx="34" fill="#17314F" fill-opacity="0.94" stroke="#BAE6FD" stroke-opacity="0.35" stroke-width="1.5" />
  <rect x="110" y="112" width="184" height="46" rx="23" fill="#0EA5E9" />
  <text x="130" y="142" class="brand" fill="#F8FAFC">ПРОРАБ</text>
  <text x="320" y="141" class="brand-secondary">PROHELPER.PRO</text>
  <text x="110" y="240" class="title">Программа для прораба</text>
  <text x="110" y="326" class="subtitle">Задачи, замечания, график работ и мобильный</text>
<text x="110" y="356" class="subtitle">контур объекта</text>
  <rect x="110" y="486" width="220" height="6" rx="3" fill="#0EA5E9" />
  <text x="110" y="522" class="meta">Единый маркетинговый SEO-контур</text>
  <rect x="790" y="94" width="320" height="442" rx="32" fill="#0B1220" fill-opacity="0.82" stroke="#BAE6FD" stroke-opacity="0.35" stroke-width="1.5" />
  <g>
    <rect x="830" y="132" width="240" height="86" rx="24" fill="#111C2F" fill-opacity="0.92" stroke="#BAE6FD" stroke-opacity="0.26" />
    <rect x="856" y="154" width="110" height="8" rx="4" fill="#0EA5E9" />
    <rect x="856" y="174" width="180" height="6" rx="3" fill="#BAE6FD" fill-opacity="0.8" />
    <rect x="856" y="190" width="144" height="5" rx="2.5" fill="#94A3B8" fill-opacity="0.72" />
  </g>
  <g>
    <rect x="830" y="248" width="240" height="86" rx="24" fill="#111C2F" fill-opacity="0.92" stroke="#BAE6FD" stroke-opacity="0.26" />
    <rect x="856" y="270" width="144" height="8" rx="4" fill="#0EA5E9" />
    <rect x="856" y="290" width="162" height="6" rx="3" fill="#BAE6FD" fill-opacity="0.8" />
    <rect x="856" y="306" width="154" height="5" rx="2.5" fill="#94A3B8" fill-opacity="0.72" />
  </g>
  <g>
    <rect x="830" y="364" width="240" height="86" rx="24" fill="#111C2F" fill-opacity="0.92" stroke="#BAE6FD" stroke-opacity="0.26" />
    <rect x="856" y="386" width="178" height="8" rx="4" fill="#0EA5E9" />
    <rect x="856" y="406" width="146" height="6" rx="3" fill="#BAE6FD" fill-opacity="0.8" />
    <rect x="856" y="422" width="164" height="5" rx="2.5" fill="#94A3B8" fill-opacity="0.72" />
  </g>
  <text x="830" y="478" class="preview">OG PREVIEW</text>
  <text x="830" y="507" class="preview-meta">1200 × 630</text>
</svg>
